<?xml version="1.0" encoding="UTF-8" standalone="no"?>
<!-- Created with Inkscape (http://www.inkscape.org/) -->

<svg
   xmlns:dc="http://purl.org/dc/elements/1.1/"
   xmlns:cc="http://creativecommons.org/ns#"
   xmlns:rdf="http://www.w3.org/1999/02/22-rdf-syntax-ns#"
   xmlns:svg="http://www.w3.org/2000/svg"
   xmlns="http://www.w3.org/2000/svg"
   xmlns:sodipodi="http://sodipodi.sourceforge.net/DTD/sodipodi-0.dtd"
   xmlns:inkscape="http://www.inkscape.org/namespaces/inkscape"
   width="744.09448819"
   height="1052.3622047"
   id="svg5783"
   version="1.1"
   inkscape:version="0.48.4 r9939"
   sodipodi:docname="Новый документ 33">
  <defs
     id="defs5785" />
  <sodipodi:namedview
     id="base"
     pagecolor="#ffffff"
     bordercolor="#666666"
     borderopacity="1.0"
     inkscape:pageopacity="0.0"
     inkscape:pageshadow="2"
     inkscape:zoom="2.5043103"
     inkscape:cx="275.38605"
     inkscape:cy="744.29849"
     inkscape:document-units="px"
     inkscape:current-layer="layer1"
     showgrid="false"
     inkscape:window-width="1920"
     inkscape:window-height="1017"
     inkscape:window-x="-8"
     inkscape:window-y="-8"
     inkscape:window-maximized="1" />
  <metadata
     id="metadata5788">
    <rdf:RDF>
      <cc:Work
         rdf:about="">
        <dc:format>image/svg+xml</dc:format>
        <dc:type
           rdf:resource="http://purl.org/dc/dcmitype/StillImage" />
        <dc:title></dc:title>
      </cc:Work>
    </rdf:RDF>
  </metadata>
  <g
     inkscape:label="Layer 1"
     inkscape:groupmode="layer"
     id="layer1">
    <g
       id="g5808"
       transform="matrix(4.727615,0,0,5.5606054,555.79484,191.34115)">
      <g
         id="g5792">
	<rect
   id="rect5794"
   height="3.28"
   width="9.7939997"
   y="4.1789999"
   x="3.641" />

	<path
   id="path5796"
   d="M 23.087,20.901 21.337,19.15 V 0.316 H 0.317 v 19.698 h 17.707 l 2.975,2.974 c 0,0 0.96,0.012 1.539,-0.651 0.578,-0.659 0.549,-1.436 0.549,-1.436 z M 1.742,18.614 V 2.239 h 18.169 v 15.485 l -1.236,-1.235 -0.572,0.347 -0.872,-0.841 C 18.589,14.088 18.427,11.43 16.719,9.722 14.918,7.922 12.078,7.845 10.166,9.442 H 3.641 v 1.252 h 5.45 C 8.712,11.332 8.499,12.032 8.436,12.749 H 3.641 v 1.245 h 4.833 c 0.127,0.731 0.427,1.435 0.887,2.057 h -5.72 v 1.251 h 7.057 c 1.66,1.033 3.796,0.974 5.403,-0.173 l 0.817,0.784 -0.292,0.699 -14.884,0.002 0,0 z m 8.871,-2.785 c -1.466,-1.47 -1.466,-3.844 0.003,-5.313 1.464,-1.468 3.844,-1.47 5.314,-0.002 1.468,1.469 1.468,3.846 -0.003,5.315 -1.465,1.465 -3.845,1.468 -5.314,0 z"
   inkscape:connector-curvature="0" />

</g>
      <g
         id="g5798">
	<path
   id="path5800"
   d="m 14.759,4.179 v 3.28 h 3.223 v -3.28 h -3.223 z m 1.609,2.437 c -0.458,0 -0.831,-0.371 -0.831,-0.83 0,-0.458 0.373,-0.829 0.831,-0.829 0.458,0 0.829,0.371 0.829,0.829 -10e-4,0.459 -0.371,0.83 -0.829,0.83 z"
   inkscape:connector-curvature="0" />

</g>
    </g>
    <text
       xml:space="preserve"
       style="font-size:40px;font-style:normal;font-weight:normal;line-height:125%;letter-spacing:0px;word-spacing:0px;fill:#000000;fill-opacity:1;stroke:none;font-family:Sans"
       x="102.18301"
       y="71.174019"
       id="text5815"
       sodipodi:linespacing="125%"><tspan
         sodipodi:role="line"
         id="tspan5817"
         x="102.18301"
         y="71.174019">Генерация ссылочной массы</tspan></text>
    <text
       xml:space="preserve"
       style="font-size:40px;font-style:normal;font-weight:normal;line-height:125%;letter-spacing:0px;word-spacing:0px;fill:#000000;fill-opacity:1;stroke:none;font-family:Sans"
       x="48.487324"
       y="174.03455"
       id="text5819"
       sodipodi:linespacing="125%"><tspan
         sodipodi:role="line"
         id="tspan5821"
         x="48.487324"
         y="174.03455" /></text>
    <text
       xml:space="preserve"
       style="font-size:13.92516613px;font-style:normal;font-weight:normal;line-height:125%;letter-spacing:0px;word-spacing:0px;fill:#000000;fill-opacity:1;stroke:none;font-family:Sans"
       x="11.504486"
       y="171.23651"
       id="text6345"
       sodipodi:linespacing="125%"><tspan
         sodipodi:role="line"
         x="11.504486"
         y="171.23651"
         id="tspan6353">..подобрать авто с хорошей </tspan><tspan
         sodipodi:role="line"
         x="11.504486"
         y="188.64297"
         id="tspan6357">комплектацией вы сможете</tspan><tspan
         sodipodi:role="line"
         x="11.504486"
         y="206.04942"
         id="tspan6359">в <tspan
   style="fill:#0000ff"
   id="tspan6649">надёжном</tspan>, впрочем если вы ре.. </tspan></text>
    <text
       xml:space="preserve"
       style="font-size:13.92516613px;font-style:normal;font-weight:normal;line-height:125%;letter-spacing:0px;word-spacing:0px;fill:#000000;fill-opacity:1;stroke:none;font-family:Sans"
       x="6.051868"
       y="252.04008"
       id="text6363"
       sodipodi:linespacing="125%"><tspan
         sodipodi:role="line"
         id="tspan6365"
         x="6.051868"
         y="252.04008">...в <tspan
   style="fill:#0000ff"
   id="tspan6651">лучшем</tspan> из мне известных вы </tspan><tspan
         sodipodi:role="line"
         x="6.051868"
         y="269.44656"
         id="tspan6655">бы смогли найти</tspan><tspan
         sodipodi:role="line"
         x="6.051868"
         y="286.85303"
         id="tspan6367">машину на свой вкус..</tspan></text>
    <text
       xml:space="preserve"
       style="font-size:13.92516613px;font-style:normal;font-weight:normal;line-height:125%;letter-spacing:0px;word-spacing:0px;fill:#000000;fill-opacity:1;stroke:none;font-family:Sans"
       x="4.3361297"
       y="322.38721"
       id="text6363-5"
       sodipodi:linespacing="125%"><tspan
         sodipodi:role="line"
         x="4.3361297"
         y="322.38721"
         id="tspan6401">я рекоммендую приобретать</tspan><tspan
         sodipodi:role="line"
         x="4.3361297"
         y="339.79367"
         id="tspan6407">шевроле в <tspan
   style="fill:#0000ff"
   id="tspan6409">проверенных</tspan> автосалонах</tspan></text>
    <text
       xml:space="preserve"
       style="font-size:25.24557114px;font-style:normal;font-weight:normal;line-height:125%;letter-spacing:0px;word-spacing:0px;fill:#000000;fill-opacity:1;stroke:none;font-family:Sans"
       x="495.52972"
       y="142.75548"
       id="text6411"
       sodipodi:linespacing="125%"><tspan
         sodipodi:role="line"
         id="tspan6413"
         x="495.52972"
         y="142.75548">Поисковая система</tspan></text>
    <path
       id="path6416"
       d="m 375.20597,177.28913 c 0,-0.96703 -0.36979,-1.87526 -1.05367,-2.55914 L 364.12386,164.6969 c -0.75506,-0.75582 -1.98047,-0.75582 -2.73553,0 -0.7566,0.75583 -0.75505,1.98666 0,2.74326 l 8.18027,8.17717 h -27.21674 c -1.06914,7.8e-4 -1.92167,0.87728 -1.92167,1.9472 0,0.002 0,0.0193 0,0.0217 0,1.06915 0.85253,1.95184 1.92167,1.95184 h 27.21751 l -8.17871,8.17254 c -0.7566,0.75582 -0.7566,1.98356 0,2.73938 0.75505,0.7566 1.98124,0.75583 2.73707,-7.7e-4 l 10.02457,-10.03386 c 0.68388,-0.68233 1.05367,-1.59288 1.05367,-2.5599 0,-0.0952 0,-0.47114 0,-0.56629 z"
       inkscape:connector-curvature="0"
       style="fill:#050505" />
    <path
       id="path6416-7"
       d="m 277.34512,249.46711 c 0,-0.96703 -0.36979,-1.87526 -1.05368,-2.55914 L 266.26301,236.8749 c -0.75505,-0.75583 -1.98047,-0.75583 -2.73552,0 -0.7566,0.75582 -0.75506,1.98666 0,2.74325 l 8.18026,8.17717 h -27.21674 c -1.06914,7.7e-4 -1.92167,0.87729 -1.92167,1.9472 0,0.002 0,0.0193 0,0.0217 0,1.06914 0.85253,1.95184 1.92167,1.95184 h 27.21751 l -8.17872,8.17252 c -0.7566,0.75583 -0.7566,1.98357 0,2.73939 0.75506,0.75661 1.98124,0.75583 2.73707,-7.7e-4 l 10.02457,-10.03385 c 0.68389,-0.68234 1.05368,-1.59289 1.05368,-2.55992 0,-0.0951 0,-0.47113 0,-0.56629 z"
       inkscape:connector-curvature="0"
       style="fill:#050505" />
    <path
       id="path6416-8"
       d="m 376.22255,330.31261 c 0,-0.96702 -0.36978,-1.87525 -1.05367,-2.55913 l -10.02843,-10.03309 c -0.75506,-0.75582 -1.98047,-0.75582 -2.73553,0 -0.7566,0.75583 -0.75505,1.98666 0,2.74326 l 8.18027,8.17717 h -27.21674 c -1.06914,7.7e-4 -1.92167,0.87729 -1.92167,1.9472 0,0.002 0,0.0193 0,0.0217 0,1.06914 0.85253,1.95185 1.92167,1.95185 h 27.21751 l -8.17872,8.17252 c -0.7566,0.75583 -0.7566,1.98357 0,2.7394 0.75505,0.7566 1.98124,0.75582 2.73707,-7.8e-4 l 10.02457,-10.03386 c 0.68389,-0.68233 1.05367,-1.59288 1.05367,-2.55991 0,-0.0951 0,-0.47113 0,-0.56629 z"
       inkscape:connector-curvature="0"
       style="fill:#050505" />
    <text
       xml:space="preserve"
       style="font-size:13.55231571px;font-style:normal;font-weight:normal;line-height:125%;letter-spacing:0px;word-spacing:0px;fill:#000000;fill-opacity:1;stroke:none;font-family:Sans"
       x="11.754004"
       y="408.32651"
       id="text3942"
       sodipodi:linespacing="125%"><tspan
         sodipodi:role="line"
         x="11.754004"
         y="408.32651"
         style="fill:#1a0dab;fill-opacity:1"
         id="tspan3954">Ваш сайт</tspan><tspan
         sodipodi:role="line"
         x="11.754004"
         y="425.26691"
         style="fill:#00661f;fill-opacity:0.94117647"
         id="tspan3962">super-avto.ru</tspan><tspan
         sodipodi:role="line"
         x="11.754004"
         y="442.20731"
         style="fill:#666666"
         id="tspan3966"><tspan
           style="font-weight:bold;-inkscape-font-specification:Sans Bold"
           id="tspan5178">Проверенный, надёжный автосалон СуперАвто</tspan></tspan><tspan
         sodipodi:role="line"
         x="11.754004"
         y="459.14771"
         style="fill:#666666"
         id="tspan3960" /><tspan
         sodipodi:role="line"
         x="11.754004"
         y="476.0881"
         style="fill:#1a0dab;fill-opacity:1"
         id="tspan3972">Сайт конкурента</tspan><tspan
         sodipodi:role="line"
         x="11.754004"
         y="493.02847"
         style="fill:#00661f;fill-opacity:0.94117647"
         id="tspan3958">good-avtomobile.com</tspan><tspan
         sodipodi:role="line"
         x="11.754004"
         y="509.9689"
         style="fill:#666666"
         id="tspan4016">Купить автомобиль в салоне Good Avtomobile  </tspan><tspan
         sodipodi:role="line"
         x="11.754004"
         y="526.9093"
         style="fill:#666666"
         id="tspan3952" /><tspan
         sodipodi:role="line"
         x="11.754004"
         y="543.84967"
         style="fill:#1a0dab;fill-opacity:1"
         id="tspan3950">Сайт конкурента 2</tspan><tspan
         sodipodi:role="line"
         x="11.754004"
         y="560.7901"
         style="fill:#00661f;fill-opacity:0.94117647"
         id="tspan3948">avto-avto-go-go.com</tspan><tspan
         sodipodi:role="line"
         x="11.754004"
         y="577.73047"
         style="fill:#666666"
         id="tspan4018">Купить машину Go Go Car</tspan></text>
    <text
       xml:space="preserve"
       style="font-size:16.34986115px;font-style:normal;font-weight:normal;line-height:125%;letter-spacing:0px;word-spacing:0px;fill:#000000;fill-opacity:1;stroke:none;font-family:Sans"
       x="457.52072"
       y="436.3967"
       id="text6629"
       sodipodi:linespacing="125%"><tspan
         sodipodi:role="line"
         x="457.52072"
         y="436.3967"
         id="tspan6633">Автоматическая генерация</tspan><tspan
         sodipodi:role="line"
         x="457.52072"
         y="456.83401"
         id="tspan6637">ссылочной массы на базе</tspan><tspan
         sodipodi:role="line"
         x="457.52072"
         y="477.27136"
         id="tspan6639">партнёрских площадок</tspan><tspan
         sodipodi:role="line"
         x="457.52072"
         y="497.70868"
         id="tspan6641">позволяет быстро и эффективно</tspan><tspan
         sodipodi:role="line"
         x="457.52072"
         y="518.146"
         id="tspan6643">привлечь достаточное кол-во</tspan><tspan
         sodipodi:role="line"
         x="457.52072"
         y="538.58331"
         id="tspan6645">пользователей по заданным</tspan><tspan
         sodipodi:role="line"
         x="457.52072"
         y="559.02063"
         id="tspan6647">ключевым словам.</tspan></text>
    <text
       xml:space="preserve"
       style="font-size:22.70416641px;font-style:normal;font-weight:normal;line-height:125%;letter-spacing:0px;word-spacing:0px;fill:#000000;fill-opacity:1;stroke:none;font-family:Sans"
       x="301.5097"
       y="256.30783"
       id="text6659"
       sodipodi:linespacing="125%"><tspan
         sodipodi:role="line"
         id="tspan6661"
         x="301.5097"
         y="256.30783">Индексация</tspan></text>
    <path
       id="path6416-7-4"
       d="m 489.37412,250.2602 c 0,-0.96703 -0.36979,-1.87526 -1.05368,-2.55914 l -10.02843,-10.03307 c -0.75505,-0.75583 -1.98047,-0.75583 -2.73552,0 -0.7566,0.75582 -0.75506,1.98666 0,2.74325 l 8.18026,8.17717 h -27.21674 c -1.06914,7.7e-4 -1.92167,0.87729 -1.92167,1.9472 0,0.002 0,0.0193 0,0.0217 0,1.06914 0.85253,1.95184 1.92167,1.95184 h 27.21751 l -8.17872,8.17252 c -0.7566,0.75583 -0.7566,1.98357 0,2.73939 0.75506,0.75661 1.98124,0.75583 2.73707,-7.7e-4 l 10.02457,-10.03385 c 0.68389,-0.68234 1.05368,-1.59289 1.05368,-2.55992 0,-0.0951 0,-0.47113 0,-0.56629 z"
       inkscape:connector-curvature="0"
       style="fill:#050505" />
    <text
       xml:space="preserve"
       style="font-size:18.30219078px;font-style:normal;font-weight:normal;line-height:125%;letter-spacing:0px;word-spacing:0px;fill:#000000;fill-opacity:1;stroke:none;font-family:Sans"
       x="455.95374"
       y="406.72794"
       id="text6681"
       sodipodi:linespacing="125%"><tspan
         sodipodi:role="line"
         x="455.95374"
         y="406.72794"
         id="tspan6691"
         style="font-size:24.40292168px">Рост трафика</tspan></text>
    <flowRoot
       xml:space="preserve"
       id="flowRoot6697"
       style="fill:black;stroke:none;stroke-opacity:1;stroke-width:1px;stroke-linejoin:miter;stroke-linecap:butt;fill-opacity:1;font-family:Sans;font-style:normal;font-weight:normal;font-size:18px;line-height:125%;letter-spacing:0px;word-spacing:0px"><flowRegion
         id="flowRegion6699"><rect
           id="rect6701"
           width="106.21687"
           height="31.146299"
           x="479.97247"
           y="522.07648" /></flowRegion><flowPara
         id="flowPara6703"></flowPara></flowRoot>    <flowRoot
       xml:space="preserve"
       id="flowRoot6713"
       style="fill:black;stroke:none;stroke-opacity:1;stroke-width:1px;stroke-linejoin:miter;stroke-linecap:butt;fill-opacity:1;font-family:Sans;font-style:normal;font-weight:normal;font-size:18px;line-height:125%;letter-spacing:0px;word-spacing:0px"><flowRegion
         id="flowRegion6715"><rect
           id="rect6717"
           width="218.82272"
           height="61.493977"
           x="376.15146"
           y="431.83206" /></flowRegion><flowPara
         id="flowPara6719"></flowPara></flowRoot>  </g>
</svg>
