<?xml version="1.0" encoding="UTF-8" standalone="no"?>
<!-- Created with Inkscape (http://www.inkscape.org/) -->

<svg
   xmlns:dc="http://purl.org/dc/elements/1.1/"
   xmlns:cc="http://creativecommons.org/ns#"
   xmlns:rdf="http://www.w3.org/1999/02/22-rdf-syntax-ns#"
   xmlns:svg="http://www.w3.org/2000/svg"
   xmlns="http://www.w3.org/2000/svg"
   xmlns:sodipodi="http://sodipodi.sourceforge.net/DTD/sodipodi-0.dtd"
   xmlns:inkscape="http://www.inkscape.org/namespaces/inkscape"
   width="803.30469"
   height="91.418808"
   id="svg2"
   version="1.1"
   inkscape:version="0.48.4 r9939"
   sodipodi:docname="search_svg.svg"
   inkscape:export-filename="C:\Users\Ruben\Documents\Keevoy-32976823471-056871975283623864-324235\front-end\assets\podskazky\search_svg.png"
   inkscape:export-xdpi="52.532696"
   inkscape:export-ydpi="52.532696">
  <defs
     id="defs4" />
  <sodipodi:namedview
     id="base"
     pagecolor="#ffffff"
     bordercolor="#666666"
     borderopacity="1.0"
     inkscape:pageopacity="0.0"
     inkscape:pageshadow="2"
     inkscape:zoom="1.4"
     inkscape:cx="254.65588"
     inkscape:cy="30.777002"
     inkscape:document-units="px"
     inkscape:current-layer="layer1"
     showgrid="false"
     inkscape:window-width="1920"
     inkscape:window-height="1017"
     inkscape:window-x="-8"
     inkscape:window-y="-8"
     inkscape:window-maximized="1"
     fit-margin-top="0"
     fit-margin-left="0"
     fit-margin-right="0"
     fit-margin-bottom="0" />
  <metadata
     id="metadata7">
    <rdf:RDF>
      <cc:Work
         rdf:about="">
        <dc:format>image/svg+xml</dc:format>
        <dc:type
           rdf:resource="http://purl.org/dc/dcmitype/StillImage" />
        <dc:title />
      </cc:Work>
    </rdf:RDF>
  </metadata>
  <g
     inkscape:label="Layer 1"
     inkscape:groupmode="layer"
     id="layer1"
     transform="translate(-36.870567,-55.846695)">
    <g
       id="g4407"
       transform="matrix(1.8755449,0,0,1,-32.281838,0)">
      <rect
         ry="10.265"
         y="55.846695"
         x="36.870567"
         height="91.418808"
         width="428.30469"
         id="rect2985"
         style="fill:#4d4d4d;fill-opacity:1" />
      <g
         id="g4404">
        <rect
           style="fill:#ffffff;fill-opacity:1"
           id="rect2987"
           width="422.85715"
           height="82.500008"
           x="39.642857"
           y="59.505039"
           ry="10.492102" />
      </g>
    </g>
    <path
       id="path2990"
       d="M 106.11923,77.511416 C 101.877,73.269187 96.236623,70.93289 90.237245,70.933045 c -3.1e-4,0 1.55e-4,0 -1.55e-4,0 -5.998912,0 -11.639755,2.336453 -15.881673,6.578371 -4.242073,4.242229 -6.578371,9.882606 -6.578371,15.881984 0,4.093912 1.088793,8.02027 3.127837,11.4497 l -16.346792,16.34664 c -1.02565,1.0258 -1.590525,2.38951 -1.590525,3.8401 0,1.45058 0.564875,2.81429 1.590525,3.83978 l 0.202772,0.20278 c 1.02565,1.0258 2.389357,1.59068 3.839943,1.59068 1.450587,0 2.814293,-0.56488 3.839943,-1.59053 l 16.346636,-16.34679 c 3.42928,2.0392 7.355793,3.12784 11.449705,3.12784 5.999378,0 11.63976,-2.3363 15.88199,-6.57837 4.24223,-4.24208 6.57853,-9.882452 6.57837,-15.88183 1.6e-4,-5.999378 -2.33599,-11.6396 -6.57822,-15.881984 z M 59.698288,126.32993 c -0.293221,0.29322 -0.68294,0.45457 -1.097482,0.45457 -0.414386,0 -0.804106,-0.1615 -1.097326,-0.45457 l -0.202927,-0.20292 c -0.293065,-0.29307 -0.454569,-0.68279 -0.454569,-1.09717 0,-0.41455 0.161504,-0.80426 0.454569,-1.09748 l 15.900446,-15.90029 c 0.367533,0.42633 0.752288,0.84103 1.154263,1.24316 0.401975,0.40213 0.816827,0.78688 1.24316,1.15426 l -15.900134,15.90044 z m 43.678332,-19.79732 c -3.509652,3.50964 -8.176042,5.44241 -13.139375,5.44241 -4.963333,0 -9.629567,-1.93277 -13.139056,-5.44241 -3.509643,-3.50964 -5.442569,-8.175877 -5.442414,-13.139055 0,-4.963489 1.932771,-9.629723 5.442414,-13.139367 3.509644,-3.509643 8.175878,-5.442569 13.139211,-5.442414 4.963489,0 9.629723,1.932771 13.13937,5.442414 3.50965,3.509644 5.44257,8.176033 5.44242,13.139367 -1.6e-4,4.963178 -1.93293,9.629415 -5.44257,13.139055 z"
       inkscape:connector-curvature="0"
       style="fill:#4d4d4d" />
    <path
       style="fill:#666666;fill-opacity:1;stroke:#4d4d4d;stroke-width:3.80067563;stroke-opacity:1"
       d="m 114.52654,127.76657 701.59645,0"
       id="path2999"
       inkscape:connector-curvature="0" />
  </g>
</svg>
