<?xml version="1.0" encoding="UTF-8" standalone="no"?>
<!-- Created with Inkscape (http://www.inkscape.org/) -->

<svg
   xmlns:dc="http://purl.org/dc/elements/1.1/"
   xmlns:cc="http://creativecommons.org/ns#"
   xmlns:rdf="http://www.w3.org/1999/02/22-rdf-syntax-ns#"
   xmlns:svg="http://www.w3.org/2000/svg"
   xmlns="http://www.w3.org/2000/svg"
   xmlns:sodipodi="http://sodipodi.sourceforge.net/DTD/sodipodi-0.dtd"
   xmlns:inkscape="http://www.inkscape.org/namespaces/inkscape"
   width="428.30469"
   height="91.418808"
   id="svg2"
   version="1.1"
   inkscape:version="0.48.4 r9939"
   sodipodi:docname="search_svg_3.svg">
  <defs
     id="defs4" />
  <sodipodi:namedview
     id="base"
     pagecolor="#ffffff"
     bordercolor="#666666"
     borderopacity="1.0"
     inkscape:pageopacity="0.0"
     inkscape:pageshadow="2"
     inkscape:zoom="0.49497475"
     inkscape:cx="798.77929"
     inkscape:cy="-917.18799"
     inkscape:document-units="px"
     inkscape:current-layer="layer1"
     showgrid="false"
     inkscape:window-width="1920"
     inkscape:window-height="1017"
     inkscape:window-x="-8"
     inkscape:window-y="-8"
     inkscape:window-maximized="1"
     fit-margin-top="0"
     fit-margin-left="0"
     fit-margin-right="0"
     fit-margin-bottom="0" />
  <metadata
     id="metadata7">
    <rdf:RDF>
      <cc:Work
         rdf:about="">
        <dc:format>image/svg+xml</dc:format>
        <dc:type
           rdf:resource="http://purl.org/dc/dcmitype/StillImage" />
        <dc:title></dc:title>
      </cc:Work>
    </rdf:RDF>
  </metadata>
  <g
     inkscape:label="Layer 1"
     inkscape:groupmode="layer"
     id="layer1"
     transform="translate(-36.870567,-55.846695)">
    <rect
       style="fill:#4d4d4d;fill-opacity:1"
       id="rect2985"
       width="428.30469"
       height="91.418808"
       x="36.870567"
       y="55.846695"
       ry="10.265" />
    <rect
       style="fill:#ffffff;fill-opacity:1"
       id="rect2987"
       width="422.85715"
       height="82.500008"
       x="39.642857"
       y="59.505039"
       ry="10.492102" />
    <path
       id="path2990"
       d="M 106.11923,77.511416 C 101.877,73.269187 96.236623,70.93289 90.237245,70.933045 c -3.1e-4,0 1.55e-4,0 -1.55e-4,0 -5.998912,0 -11.639755,2.336453 -15.881673,6.578371 -4.242073,4.242229 -6.578371,9.882606 -6.578371,15.881984 0,4.093912 1.088793,8.02027 3.127837,11.4497 l -16.346792,16.34664 c -1.02565,1.0258 -1.590525,2.38951 -1.590525,3.8401 0,1.45058 0.564875,2.81429 1.590525,3.83978 l 0.202772,0.20278 c 1.02565,1.0258 2.389357,1.59068 3.839943,1.59068 1.450587,0 2.814293,-0.56488 3.839943,-1.59053 l 16.346636,-16.34679 c 3.42928,2.0392 7.355793,3.12784 11.449705,3.12784 5.999378,0 11.63976,-2.3363 15.88199,-6.57837 4.24223,-4.24208 6.57853,-9.882452 6.57837,-15.88183 1.6e-4,-5.999378 -2.33599,-11.6396 -6.57822,-15.881984 z M 59.698288,126.32993 c -0.293221,0.29322 -0.68294,0.45457 -1.097482,0.45457 -0.414386,0 -0.804106,-0.1615 -1.097326,-0.45457 l -0.202927,-0.20292 c -0.293065,-0.29307 -0.454569,-0.68279 -0.454569,-1.09717 0,-0.41455 0.161504,-0.80426 0.454569,-1.09748 l 15.900446,-15.90029 c 0.367533,0.42633 0.752288,0.84103 1.154263,1.24316 0.401975,0.40213 0.816827,0.78688 1.24316,1.15426 l -15.900134,15.90044 z m 43.678332,-19.79732 c -3.509652,3.50964 -8.176042,5.44241 -13.139375,5.44241 -4.963333,0 -9.629567,-1.93277 -13.139056,-5.44241 -3.509643,-3.50964 -5.442569,-8.175877 -5.442414,-13.139055 0,-4.963489 1.932771,-9.629723 5.442414,-13.139367 3.509644,-3.509643 8.175878,-5.442569 13.139211,-5.442414 4.963489,0 9.629723,1.932771 13.13937,5.442414 3.50965,3.509644 5.44257,8.176033 5.44242,13.139367 -1.6e-4,4.963178 -1.93293,9.629415 -5.44257,13.139055 z"
       inkscape:connector-curvature="0"
       style="fill:#4d4d4d" />
    <path
       style="fill:#666666;fill-opacity:1;stroke:#4d4d4d;stroke-width:2.65723825;stroke-opacity:1"
       d="m 113.13709,127.76657 342.94679,0"
       id="path2999"
       inkscape:connector-curvature="0" />
    <text
       xml:space="preserve"
       style="font-size:55.10742188px;font-style:normal;font-weight:normal;line-height:125%;letter-spacing:0px;word-spacing:0px;fill:#000000;fill-opacity:1;stroke:none;font-family:Sans"
       x="138.73924"
       y="114.08616"
       id="text3777"
       sodipodi:linespacing="125%"><tspan
         sodipodi:role="line"
         id="tspan3779"
         x="138.73924"
         y="114.08616"
         style="fill:#4d4d4d">купить авто</tspan></text>
    <g
       id="g3884"
       transform="translate(-28.876005,-12.324881)">
      <text
         sodipodi:linespacing="125%"
         id="text3777-9"
         y="203.03867"
         x="163.61195"
         style="font-size:55.10742188px;font-style:normal;font-weight:normal;line-height:125%;letter-spacing:0px;word-spacing:0px;fill:#000000;fill-opacity:1;stroke:none;font-family:Sans"
         xml:space="preserve"><tspan
           style="fill:#4d4d4d"
           y="203.03867"
           x="163.61195"
           id="tspan3779-4"
           sodipodi:role="line">купить авто москва</tspan><tspan
           id="tspan3846"
           style="fill:#4d4d4d"
           y="271.92294"
           x="163.61195"
           sodipodi:role="line">купить авто с пробегом</tspan><tspan
           id="tspan3844"
           style="fill:#4d4d4d"
           y="340.80722"
           x="163.61195"
           sodipodi:role="line">купить авто салон СуперАвто</tspan></text>
      <path
         inkscape:connector-curvature="0"
         id="path2999-8"
         d="m 67.727558,223.02694 762.410082,0"
         style="fill:#666666;fill-opacity:1;stroke:#4d4d4d;stroke-width:3.96197224;stroke-opacity:1" />
      <path
         inkscape:connector-curvature="0"
         id="path2999-8-8"
         d="m 67.727558,297.77823 762.410082,0"
         style="fill:#666666;fill-opacity:1;stroke:#4d4d4d;stroke-width:3.96197224;stroke-opacity:1" />
    </g>
    <text
       xml:space="preserve"
       style="font-size:40px;font-style:normal;font-weight:normal;line-height:125%;letter-spacing:0px;word-spacing:0px;fill:#000000;fill-opacity:1;stroke:none;font-family:Sans"
       x="226.27417"
       y="367.19046"
       id="text3928"
       sodipodi:linespacing="125%"
       transform="translate(36.870567,55.846695)"><tspan
         sodipodi:role="line"
         id="tspan3930"
         x="226.27417"
         y="367.19046" /></text>
    <path
       id="path3933"
       d="m 442.78342,534.11284 c 2.53888,0 4.9234,-1.03335 6.71889,-2.9443 l 26.34139,-28.02276 c 1.98439,-2.10984 1.98439,-5.53403 0,-7.64388 -1.98439,-2.11419 -5.21588,-2.1099 -7.20229,0 l -21.46878,22.85827 0,-76.05238 c -0.002,-2.98753 -2.30326,-5.36977 -5.11228,-5.36977 -0.006,0 -0.0507,0 -0.0568,0 -2.80699,0 -5.12448,2.38224 -5.12448,5.36977 l 0,76.05455 -21.45658,-22.85398 c -1.98438,-2.11419 -5.20775,-2.11419 -7.19214,0 -1.98642,2.10985 -1.98438,5.53625 0.002,7.64827 l 26.34341,28.01191 c 1.79144,1.91095 4.18205,2.9443 6.72093,2.9443 0.24982,0 1.23694,0 1.48677,0 z"
       inkscape:connector-curvature="0"
       style="fill:#666666;fill-opacity:1" />
    <g
       id="g4051"
       transform="matrix(0.16095394,0,0,0.16095394,12.883432,293.95501)"
       style="fill:#4d4d4d">
	<path
   id="path4053"
   d="m 352,923 c 0,11 9,20 20,20 h 295.6 c 11,0 20,-9 20,-20 V 877.2 H 352 V 923 z"
   inkscape:connector-curvature="0"
   style="fill:#4d4d4d" />

	<path
   id="path4055"
   d="m 345.3,370.5 0.1,-146.3 c 0,-16.9 6.4,-32.7 18.1,-44.5 13,-13 31.6,-20.4 51.2,-20.4 15.3,0 30,4.7 41.4,13.1 13.8,10.2 22.4,25.6 24.2,43.2 0,0.4 7.9,76.7 15,145 49.7,-29.2 83.2,-83.2 83.2,-145 0,-92.8 -75.2,-168 -168,-168 -92.8,0 -168,75.2 -168,168 -0.1,69.6 42.3,129.4 102.8,154.9 z"
   inkscape:connector-curvature="0"
   style="fill:#4d4d4d" />

	<path
   id="path4057"
   d="m 740,561.4 c 0,-19.5 -12.5,-36.8 -31.1,-42.8 -55.5,-18.1 -167.5,-54.2 -184.6,-57.6 -5.3,-1 -10.5,-1.5 -15.5,-1.5 -13.5,0 -25.3,3.7 -32.4,10 l -0.1,0 c 0,0 0,0 0,-0.1 -0.1,-0.8 -25.9,-250.3 -25.9,-250.7 -2.1,-20 -18.7,-29.5 -35.8,-29.5 -19.4,0 -39.4,12.2 -39.3,34.9 l -0.2,404.3 c 0,4.8 -3.5,8.8 -8.3,9.5 -0.1,0 -0.1,0 -0.2,0 -0.4,0.1 -0.9,0.1 -1.3,0.1 -0.1,0 -0.2,0 -0.3,0 -13.6,-0.4 -44.3,-0.8 -74.2,-44.1 -4,-5.7 -7.6,-10.9 -10.9,-15.7 -10.4,-14.9 -24.3,-21.3 -37.4,-21.3 -23,0 -43.7,19.9 -38.7,49.6 7.2,43.3 54.6,144.2 148,238.8 H 687.4 L 721.3,788 c 12.1,-20.3 18.5,-43.5 18.5,-67.2 L 740,561.4 z"
   inkscape:connector-curvature="0"
   style="fill:#4d4d4d" />

</g>
    <text
       xml:space="preserve"
       style="font-size:40px;font-style:normal;font-weight:normal;line-height:125%;letter-spacing:0px;word-spacing:0px;fill:#000000;fill-opacity:1;stroke:none;font-family:Sans"
       x="397.14285"
       y="1081.4188"
       id="text4082"
       sodipodi:linespacing="125%"
       transform="translate(36.870567,55.846695)"><tspan
         sodipodi:role="line"
         id="tspan4084"
         x="397.14285"
         y="1081.4188" /></text>
    <text
       xml:space="preserve"
       style="font-size:40px;font-style:normal;font-weight:normal;line-height:125%;letter-spacing:0px;word-spacing:0px;fill:#000000;fill-opacity:1;stroke:none;font-family:Sans"
       x="21.428572"
       y="635.70453"
       id="text4086"
       sodipodi:linespacing="125%"
       transform="translate(36.870567,55.846695)"><tspan
         sodipodi:role="line"
         id="tspan4088"></tspan></text>
    <text
       xml:space="preserve"
       style="font-size:40px;font-style:normal;font-weight:normal;line-height:125%;letter-spacing:0px;word-spacing:0px;fill:#000000;fill-opacity:1;stroke:none;font-family:Sans"
       x="3302.8572"
       y="845.70453"
       id="text4155"
       sodipodi:linespacing="125%"
       transform="translate(36.870567,55.846695)"><tspan
         sodipodi:role="line"
         id="tspan4157"
         x="3302.8572"
         y="845.70453" /></text>
  </g>
</svg>
