<svg xmlns="http://www.w3.org/2000/svg" width="220" height="50"><g letter-spacing="0" word-spacing="0" font-family="Sans"><g style="line-height:125%" font-size="41.574"><g style="line-height:125%" font-size="40"><path d="M40.85 29.085c-.352.524-.687.95-1.005 1.278-.318.327-.698.587-1.14.777-.444.19-.972.286-1.585.286-.932 0-1.707-.283-2.326-.85-.62-.565-1.093-1.604-1.422-3.118l-.97-4.522c-.274-1.252-.546-2.21-.82-2.878-.27-.667-.712-1.204-1.32-1.61-.607-.404-1.473-.607-2.597-.607h-2.317v9.19c0 .917.07 1.584.213 2 .143.418.404.704.785.86.38.154.99.25 1.83.285v.733c-1.078-.07-2.554-.108-4.428-.108-2.01 0-3.498.036-4.464.108v-.733c.84-.036 1.45-.13 1.832-.286.38-.156.64-.442.783-.86.142-.416.213-1.083.213-2V8.867c0-.917-.07-1.585-.212-2.002-.142-.417-.403-.703-.783-.858-.38-.155-.99-.25-1.832-.286V4.99c.966.07 2.454.107 4.464.107 1.874 0 3.35-.036 4.43-.108v.732c-.84.036-1.452.13-1.832.286-.38.155-.642.44-.784.858-.14.417-.212 1.085-.212 2.002v8.276c1.193-.024 2.23-.18 3.11-.473.88-.29 1.592-.77 2.137-1.438.432-.537.77-1.147 1.014-1.833.243-.686.547-1.806.91-3.36.363-1.556.8-2.75 1.312-3.585.76-1.323 1.868-1.984 3.322-1.984.83 0 1.43.2 1.806.6.374.4.562.908.562 1.528 0 .632-.182 1.15-.545 1.555-.364.405-.847.608-1.448.608-.65 0-1.137-.19-1.467-.57-.33-.382-.494-.86-.494-1.43 0-.275.005-.487.016-.636.012-.148.017-.247.018-.295-.023.01-.046.023-.07.035-.02.012-.044.024-.067.036-.375.18-.698.448-.97.806-.5.68-.932 1.787-1.295 3.324-.364 1.538-.702 2.768-1.014 3.692-.312.923-.843 1.736-1.593 2.44-.454.417-1.05.75-1.79 1 1.83.096 3.33.53 4.5 1.305 1.168.775 1.963 2.104 2.384 3.987l1.004 4.61c.18.812.338 1.42.468 1.825.13.404.29.702.477.892.187.19.44.286.757.286.398 0 .72-.104.97-.313.25-.208.57-.57.955-1.08l.528.41z" fill="#800000"/><path d="M61.406 12.16c-.77.032-1.33.115-1.68.25-.348.136-.588.386-.718.75-.13.365-.196.95-.196 1.75v12.673c0 .802.066 1.385.196 1.75.13.364.37.614.72.75.348.135.907.218 1.678.25v.64c-.885-.062-2.23-.094-4.03-.094-1.76 0-3.136.03-4.126.093v-.64c.77-.03 1.33-.115 1.68-.25.35-.136.588-.386.718-.75.13-.365.196-.948.196-1.75V14.91c0-.822-.058-1.42-.172-1.796-.115-.375-.326-.628-.633-.758-.308-.13-.8-.195-1.477-.195h-.407c-.666 0-1.143.07-1.43.212-.286.14-.48.383-.585.726-.104.344-.192.948-.265 1.813-.063.574-.232 2.524-.508 5.852-.276 3.328-.906 5.938-1.89 7.828-.985 1.89-2.415 2.836-4.29 2.836-.802 0-1.486-.18-2.054-.54-.568-.358-.852-.908-.852-1.647 0-.553.178-.993.532-1.32.355-.33.808-.494 1.36-.494.48 0 .87.128 1.172.383.302.254.453.616.453 1.085 0 .73-.458 1.36-1.375 1.89.198.022.453.032.766.032 1.52 0 2.687-.76 3.5-2.282.812-1.52 1.364-3.32 1.656-5.398.29-2.078.557-4.82.797-8.227.02-.375.032-.625.032-.75 0-.53-.078-.934-.234-1.21-.157-.277-.417-.47-.782-.58-.364-.108-.9-.178-1.61-.21v-.64c.907.062 2.006.094 3.298.094.29 0 .713-.016 1.265-.047.55-.03.963-.047 1.234-.047.48 0 1.164.016 2.054.047.89.03 1.628.047 2.21.047 1.647 0 2.913-.03 3.798-.094v.64z" style="-inkscape-font-specification:Playfair Display SC" font-size="32" font-family="Playfair Display SC"/><path d="M73.672 20.567c.104-1.885.547-3.547 1.328-4.984.78-1.438 1.826-2.55 3.133-3.336 1.307-.787 2.778-1.18 4.414-1.18 1.77 0 3.323.393 4.656 1.18 1.333.786 2.367 1.93 3.102 3.43.734 1.5 1.1 3.29 1.1 5.374 0 2.033-.38 3.835-1.14 5.408-.76 1.573-1.815 2.794-3.163 3.664-1.35.87-2.878 1.304-4.586 1.304-1.77 0-3.326-.393-4.664-1.18-1.34-.786-2.375-1.93-3.11-3.43-.734-1.5-1.1-3.29-1.1-5.374v-.234h-4v6.375c0 .802.064 1.385.194 1.75.13.364.37.614.72.75.348.135.908.218 1.678.25v.64c-.98-.062-2.333-.094-4.062-.094-1.833 0-3.198.03-4.094.093v-.64c.77-.03 1.33-.115 1.68-.25.35-.136.588-.386.72-.75.13-.365.194-.948.194-1.75V14.91c0-.8-.065-1.385-.195-1.75-.13-.364-.37-.614-.72-.75-.348-.135-.908-.218-1.68-.25v-.64c.887.062 2.25.094 4.095.094 1.73 0 3.083-.03 4.062-.094v.64c-.77.032-1.33.115-1.68.25-.348.136-.588.386-.718.75-.13.365-.195.95-.195 1.75v5.657h4.032zm8.97 10.28c1.113 0 2.09-.408 2.928-1.225.84-.818 1.487-1.96 1.946-3.422.458-1.464.687-3.138.687-5.024 0-1.895-.258-3.565-.773-5.007-.516-1.444-1.214-2.56-2.094-3.345-.88-.787-1.852-1.18-2.914-1.18-1.115 0-2.094.41-2.938 1.227-.843.817-1.494 1.958-1.953 3.422-.457 1.463-.686 3.138-.686 5.023 0 1.896.258 3.568.773 5.016.516 1.448 1.214 2.562 2.094 3.343.88.782 1.858 1.172 2.93 1.172z" style="-inkscape-font-specification:Playfair Display SC" font-size="32" font-family="Playfair Display SC"/><path d="M113.422 12.16c-.77.032-1.33.115-1.68.25-.35.136-.588.386-.72.75-.13.365-.194.95-.194 1.75v12.673c0 .802.065 1.385.195 1.75.13.364.37.614.72.75.348.135.908.218 1.68.25v.64c-.887-.062-2.25-.094-4.095-.094-2.01 0-3.578.03-4.703.093v-.64c.948-.03 1.64-.115 2.078-.25.438-.136.74-.386.906-.75.166-.365.25-.948.25-1.75v-5.25c-.657.395-1.56.75-2.712 1.062-1.15.313-2.252.47-3.304.47-1.75 0-3.115-.37-4.094-1.11-.583-.448-.984-.99-1.203-1.625-.22-.636-.328-1.527-.328-2.672v-3.97c0-.593-.082-1.056-.243-1.39-.162-.333-.417-.567-.766-.703-.348-.135-.825-.203-1.43-.203v-.672c1.96.083 3.272.125 3.94.125.592 0 1.785-.042 3.577-.125v.672c-.53 0-.945.068-1.242.203-.297.136-.516.37-.657.703-.14.334-.21.797-.21 1.39v4.673c0 .782.085 1.433.257 1.954.172.52.526.94 1.063 1.258.536.317 1.325.476 2.367.476 2.104 0 3.766-.354 4.984-1.062V14.91c0-.8-.066-1.385-.196-1.75-.13-.364-.37-.614-.72-.75-.348-.135-.908-.218-1.678-.25v-.64c.885.062 2.25.094 4.093.094 1.718 0 3.072-.03 4.062-.094v.64z" style="-inkscape-font-specification:Playfair Display SC" font-size="32" font-family="Playfair Display SC"/><path d="M131.984 24.895c-.062.573-.093 1.34-.093 2.297 0 1.125.074 2.385.22 3.78-1.386-.06-3.725-.093-7.016-.093-3.938 0-6.922.03-8.953.093v-.64c.772-.03 1.33-.115 1.68-.25.35-.136.59-.386.72-.75.13-.365.194-.948.194-1.75V14.91c0-.8-.065-1.385-.195-1.75-.13-.364-.37-.614-.72-.75-.35-.135-.908-.218-1.68-.25v-.64c2.032.062 5.016.094 8.954.094 2.99 0 5.114-.03 6.375-.094-.147 1.28-.22 2.432-.22 3.453 0 .834.03 1.495.094 1.985h-.735c-.115-1.188-.316-2.12-.602-2.797-.287-.676-.698-1.163-1.235-1.46-.536-.297-1.247-.445-2.132-.445h-2.343c-.77 0-1.33.06-1.68.18-.35.12-.588.36-.72.726-.13.365-.194.95-.194 1.75v5.954h2.656c.676 0 1.2-.175 1.57-.524.37-.35.617-.734.742-1.156.125-.422.24-.95.344-1.586h.734c-.073.834-.11 1.625-.11 2.375l.016 1.203c0 .855.068 2.052.203 3.594h-.75c-.084-.656-.2-1.213-.352-1.672-.15-.458-.417-.838-.797-1.14-.38-.302-.913-.453-1.6-.453h-2.657v6.078c0 .802.065 1.382.195 1.742.13.36.37.6.72.726.348.126.908.19 1.68.19h2.343c1.053 0 1.89-.17 2.516-.51.625-.337 1.1-.89 1.422-1.655.323-.766.547-1.826.672-3.18h.734z" style="-inkscape-font-specification:Playfair Display SC" font-size="32" font-family="Playfair Display SC"/><path d="M145.5 20.598c2.23.282 3.823.888 4.78 1.82.96.933 1.44 2.034 1.44 3.305 0 1.032-.296 1.943-.884 2.735-.59.79-1.438 1.408-2.547 1.85-1.11.444-2.42.665-3.93.665-.407 0-1.118-.016-2.133-.047-1.016-.03-2.034-.047-3.055-.047-1.75 0-3.073.03-3.97.093v-.64c.772-.03 1.332-.115 1.68-.25.35-.136.59-.386.72-.75.13-.365.195-.948.195-1.75V14.91c0-.812-.065-1.4-.195-1.765-.13-.364-.368-.612-.71-.742-.345-.13-.908-.21-1.69-.242v-.64c.887.062 2.19.094 3.907.094.78 0 1.643-.01 2.585-.03.943-.022 1.586-.032 1.93-.032 1.385 0 2.56.185 3.523.555.964.37 1.688.883 2.172 1.54.485.655.727 1.416.727 2.28 0 1.03-.36 1.953-1.078 2.766-.72.812-1.876 1.427-3.47 1.844v.062zm-2.906-.062c1.635 0 2.776-.372 3.422-1.117.645-.746.968-1.79.968-3.134 0-1.375-.33-2.406-.992-3.093-.66-.688-1.72-1.032-3.18-1.032-.572 0-1.002.077-1.29.228-.285.15-.483.42-.592.805-.11.385-.164.958-.164 1.718v5.626h1.828zm-1.828 7.047c0 .77.054 1.34.164 1.703.11.365.307.615.593.75.287.136.727.203 1.32.203 1.95 0 3.38-.39 4.298-1.172.917-.782 1.376-1.938 1.376-3.47 0-1.478-.427-2.6-1.282-3.366-.854-.766-2.218-1.15-4.093-1.15h-2.374v6.5z" style="-inkscape-font-specification:Playfair Display SC" font-size="32" font-family="Playfair Display SC"/><path d="M164.72 11.067c1.967 0 3.69.393 5.17 1.18 1.48.786 2.626 1.93 3.438 3.43.813 1.5 1.22 3.29 1.22 5.374 0 2.043-.42 3.848-1.26 5.415-.838 1.568-2.004 2.787-3.5 3.657-1.494.87-3.194 1.304-5.1 1.304-1.97 0-3.69-.393-5.165-1.18-1.474-.786-2.617-1.93-3.43-3.43-.812-1.5-1.218-3.29-1.218-5.374 0-2.042.42-3.85 1.258-5.422.838-1.573 2.002-2.792 3.492-3.656 1.49-.865 3.187-1.297 5.094-1.297zm-.126.578c-1.302 0-2.448.41-3.438 1.227-.99.817-1.752 1.958-2.29 3.422-.535 1.463-.804 3.138-.804 5.023 0 1.896.3 3.568.9 5.016.598 1.448 1.41 2.562 2.436 3.343 1.026.782 2.164 1.172 3.414 1.172 1.303 0 2.448-.41 3.438-1.226.99-.818 1.753-1.96 2.29-3.422.536-1.464.804-3.138.804-5.024 0-1.895-.3-3.567-.9-5.015-.598-1.447-1.41-2.562-2.436-3.343-1.026-.78-2.164-1.172-3.414-1.172z" style="-inkscape-font-specification:Playfair Display SC" font-size="32" font-family="Playfair Display SC"/><path d="M199.11 12.16c-.77.032-1.33.115-1.68.25-.35.136-.59.386-.72.75-.13.365-.194.95-.194 1.75v12.673c0 .802.065 1.385.195 1.75.13.364.37.614.72.75.35.135.91.218 1.68.25v.64c-.886-.062-2.25-.094-4.094-.094-1.71 0-3.063.03-4.063.093v-.64c.77-.03 1.33-.115 1.68-.25.35-.136.588-.386.72-.75.13-.365.194-.948.194-1.75V15.66l-10.39 12.548c.03.593.122 1.033.273 1.32.15.286.398.484.742.594.344.11.864.18 1.562.21v.64c-.99-.06-2.343-.093-4.062-.093-1.844 0-3.208.03-4.094.093v-.64c.77-.03 1.33-.115 1.68-.25.35-.136.588-.386.72-.75.13-.365.194-.948.194-1.75V14.91c0-.8-.065-1.385-.195-1.75-.13-.364-.37-.614-.72-.75-.348-.135-.908-.218-1.68-.25v-.64c.887.062 2.25.094 4.095.094 1.72 0 3.073-.03 4.062-.094v.64c-.77.032-1.33.115-1.68.25-.348.136-.588.386-.718.75-.13.365-.195.95-.195 1.75V27.1l10.407-12.578c-.02-.677-.104-1.172-.25-1.484-.146-.313-.39-.53-.735-.65-.343-.118-.88-.194-1.61-.225v-.64c1 .062 2.355.094 4.064.094 1.833 0 3.198-.03 4.093-.094v.64zm-5.923-8.765c.5 0 .91.16 1.227.477.318.317.477.742.477 1.273 0 .448-.122.844-.367 1.188-.244.343-.638.677-1.18 1-1.322.802-2.984 1.203-4.984 1.203-1.99 0-3.657-.4-5-1.203-.532-.323-.92-.657-1.165-1-.244-.344-.367-.74-.367-1.188 0-.53.156-.956.47-1.273.31-.318.723-.477 1.233-.477.512 0 .93.154 1.26.46.327.308.49.728.49 1.26 0 .436-.12.796-.358 1.077-.24.28-.568.47-.984.563.447.416 1.085.71 1.914.882.828.172 1.664.258 2.507.258.843 0 1.68-.086 2.507-.258.828-.172 1.46-.466 1.9-.882-.418-.094-.746-.282-.986-.563-.238-.28-.358-.64-.358-1.078 0-.52.17-.938.508-1.25.338-.313.757-.47 1.258-.47z" style="-inkscape-font-specification:Playfair Display SC" font-size="32" font-family="Playfair Display SC"/></g><g style="line-height:125%" transform="matrix(.981 0 0 .894 -82.248 -876.591)"><path d="M169.89 1003.536c0 1.475-.857 2.67-1.913 2.67s-1.912-1.195-1.912-2.67c0-1.474.856-2.67 1.912-2.67s1.912 1.196 1.912 2.67z"/><rect ry=".657" y="1004.083" x="167.146" height="5.997" width="1.662"/></g></g><text style="line-height:125%" x="19.07" y="1047.184" font-size="40" transform="translate(0 -1002.362)"><tspan x="19.07" y="1047.184" style="-inkscape-font-specification:Playfair Display SC" font-size="15" font-family="Playfair Display SC"><tspan fill="#800000">ф</tspan>актор<tspan fill="#800000">т</tspan>воего<tspan fill="#800000">у</tspan>спеха</tspan></text></g></svg>