<svg xmlns="http://www.w3.org/2000/svg" width="744.094" height="1052.362"><defs><filter x="0" y="0" width="1" height="1" color-interpolation-filters="sRGB" id="b"><feColorMatrix type="saturate" values="1" result="fbSourceGraphic"/><feColorMatrix in="fbSourceGraphic" values="-1 0 0 0 1 0 -1 0 0 1 0 0 -1 0 1 0 0 0 1 0"/></filter><filter x="0" y="0" width="1" height="1" color-interpolation-filters="sRGB" id="c"><feColorMatrix type="saturate" values="1" result="fbSourceGraphic"/><feColorMatrix in="fbSourceGraphic" values="-1 0 0 0 1 0 -1 0 0 1 0 0 -1 0 1 0 0 0 1 0"/></filter><filter x="0" y="0" width="1" height="1" color-interpolation-filters="sRGB" id="a"><feColorMatrix type="saturate" values="1" result="fbSourceGraphic"/><feColorMatrix in="fbSourceGraphic" values="-1 0 0 0 1 0 -1 0 0 1 0 0 -1 0 1 0 0 0 1 0"/></filter><filter x="0" y="0" width="1" height="1" color-interpolation-filters="sRGB" id="d"><feColorMatrix type="saturate" values="1" result="fbSourceGraphic"/><feColorMatrix in="fbSourceGraphic" values="-1 0 0 0 1 0 -1 0 0 1 0 0 -1 0 1 0 0 0 1 0"/></filter></defs><g><g transform="matrix(1.042 0 0 1.042 321.864 71.11)" filter="url(#a)"><path d="M53.174 52.908c-1.54-.896-3.678-.896-5.416-.896H42.05v11.76h5.24c1.938 0 4.41.14 6.083-1.035 1.535-1.033 2.404-3.06 2.404-4.992 0-1.794-1.068-3.94-2.603-4.837zM51.02 42.865c1.27-.967 1.937-2.69 1.937-4.28 0-1.724-.8-3.38-2.27-4.276-1.537-.897-4.346-.69-6.15-.69H42.05v10.35h3.29c1.87 0 4.078.137 5.68-1.105zM79.126 0H16.873C7.555 0 0 7.555 0 16.875v62.25C0 88.443 7.555 96 16.873 96h62.252C88.443 96 96 88.443 96 79.125v-62.25C96 7.555 88.443 0 79.125 0zm-28.52 72.535H30.99V25.2H52.42c6.207 0 11.934 3.952 11.934 10.92 0 5.382-3.004 9.067-6.836 10.212v.14c5.682 1.173 9.74 4.26 9.74 11.704 0 6.89-4.692 14.36-16.654 14.36z"/></g><path d="M115.46 302.484H48.796c-9.167 0-16.668 7.5-16.668 16.67v66.66c0 9.175 7.5 16.67 16.668 16.67h66.666c9.17 0 16.667-7.495 16.667-16.67v-66.66c0-9.17-7.498-16.67-16.666-16.67zm1.686 50h-16.27v43.75h-18.75v-43.75h-9.035V338.17h9.037v-9.294c0-12.632 5.448-20.142 20.3-20.142h17.113v15.485h-13.977c-4.15-.008-4.663 2.163-4.663 6.202l-.023 7.75h18.75l-2.48 14.312z" filter="url(#b)"/><g transform="matrix(3.846 0 0 3.846 619.703 306.298)" filter="url(#c)"><path fill="none" d="M0 0h26v26H0z"/><path d="M20 7c-.55 0-1-.45-1-1V4c0-.55.45-1 1-1h2c.55 0 1 .45 1 1v2c0 .55-.45 1-1 1h-2z"/><path d="M13 9.188c-.726 0-1.396.213-1.973.563.18-.055.367-.092.564-.092 1.07 0 1.934.865 1.934 1.934 0 1.066-.865 1.933-1.933 1.933-1.067 0-1.932-.866-1.932-1.933 0-.2.04-.386.094-.565-.352.577-.564 1.247-.564 1.973 0 2.107 1.705 3.813 3.813 3.813 2.106 0 3.814-1.705 3.814-3.813S15.104 9.188 13 9.188z"/><g><path d="M13 7c3.313 0 6 2.686 6 6s-2.688 6-6 6c-3.313 0-6-2.686-6-6s2.687-6 6-6m0-2c-4.41 0-8 3.59-8 8s3.59 8 8 8 8-3.59 8-8-3.59-8-8-8z"/></g><path d="M21.125 0H4.875C2.182 0 0 2.182 0 4.875v16.25C0 23.818 2.182 26 4.875 26h16.25C23.818 26 26 23.818 26 21.125V4.875C26 2.182 23.818 0 21.125 0zM24 9h-6.537C18.416 10.063 19 11.46 19 13c0 3.314-2.688 6-6 6-3.313 0-6-2.686-6-6 0-1.54.584-2.938 1.537-4H2V4.875C2 3.29 3.29 2 4.875 2h16.25C22.71 2 24 3.29 24 4.875V9z"/></g><path d="M406.48 527.285h-62.5c-10.356 0-18.75 8.394-18.75 18.75v62.5c0 10.357 8.394 18.75 18.75 18.75h62.5c10.356 0 18.75-8.393 18.75-18.75v-62.5c0-10.356-8.394-18.75-18.75-18.75zm-6.375 38.775l.037 1.594c0 16.275-12.38 35.025-35.025 35.025-6.95 0-13.418-2.038-18.868-5.532.96.112 1.942.175 2.936.175 5.77 0 11.075-1.97 15.288-5.27-5.388-.1-9.932-3.66-11.5-8.55.756.145 1.518.214 2.318.214 1.125 0 2.213-.144 3.244-.425-5.63-1.138-9.875-6.107-9.875-12.07v-.155c1.664.925 3.557 1.475 5.576 1.543-3.3-2.206-5.475-5.975-5.475-10.243 0-2.257.607-4.37 1.664-6.188 6.068 7.45 15.143 12.35 25.375 12.862-.214-.9-.32-1.844-.32-2.807 0-6.793 5.512-12.306 12.312-12.306 3.538 0 6.738 1.493 8.988 3.887 2.8-.557 5.437-1.582 7.82-2.988-.92 2.874-2.87 5.287-5.414 6.812 2.48-.294 4.863-.963 7.07-1.938-1.65 2.463-3.745 4.63-6.15 6.356z" filter="url(#d)"/><rect width="426.284" height="228.972" x="164.655" y="241.73" ry="23.533" fill="#333"/><text style="line-height:125%" x="284.863" y="334.144" font-size="40" letter-spacing="0" word-spacing="0" fill="#fff" font-family="Sans"/><text style="line-height:125%" x="255.569" y="303.839" font-size="16" letter-spacing="0" word-spacing="0" fill="#fff" font-family="Sans"/><text style="line-height:125%" x="192.857" y="271.177" transform="scale(1.016 .984)" font-size="16.864" letter-spacing="0" word-spacing="0" fill="#fff" font-family="Sans"><tspan x="192.857" y="271.177">Социальное размещение</tspan><tspan x="192.857" y="313.337">Размещение информации о веб сайте</tspan><tspan x="192.857" y="334.417">товарах и услугах и ссылок, в сообществах,</tspan><tspan x="192.857" y="355.496">группах записях, интеграция в новостную ленту</tspan><tspan x="192.857" y="376.576">пользователей участников различных</tspan><tspan x="192.857" y="397.656">партнёрских программ наших партнёров с</tspan><tspan x="192.857" y="418.736">помощью нашей специальной</tspan><tspan x="192.857" y="439.816">технологиитехнология</tspan><tspan x="192.857" y="460.895">Insider SMM.</tspan></text></g></svg>