<?xml version="1.0" encoding="UTF-8" standalone="no"?>
<!-- Created with Inkscape (http://www.inkscape.org/) -->

<svg
   xmlns:dc="http://purl.org/dc/elements/1.1/"
   xmlns:cc="http://creativecommons.org/ns#"
   xmlns:rdf="http://www.w3.org/1999/02/22-rdf-syntax-ns#"
   xmlns:svg="http://www.w3.org/2000/svg"
   xmlns="http://www.w3.org/2000/svg"
   xmlns:sodipodi="http://sodipodi.sourceforge.net/DTD/sodipodi-0.dtd"
   xmlns:inkscape="http://www.inkscape.org/namespaces/inkscape"
   width="220"
   height="50"
   id="svg2"
   version="1.1"
   inkscape:version="0.48.5 r10040"
   inkscape:export-filename="C:\Users\Dmitry\Downloads\Ключевой\front-end\img\logo@2x.png"
   inkscape:export-xdpi="180"
   inkscape:export-ydpi="180"
   sodipodi:docname="Ключевой 1.svg">
  <defs
     id="defs4" />
  <sodipodi:namedview
     id="base"
     pagecolor="#ffffff"
     bordercolor="#666666"
     borderopacity="1.0"
     inkscape:pageopacity="0.0"
     inkscape:pageshadow="2"
     inkscape:zoom="2.8"
     inkscape:cx="160.55178"
     inkscape:cy="-22.625042"
     inkscape:document-units="px"
     inkscape:current-layer="text2985"
     showgrid="false"
     inkscape:window-width="1920"
     inkscape:window-height="1017"
     inkscape:window-x="-8"
     inkscape:window-y="-8"
     inkscape:window-maximized="1" />
  <metadata
     id="metadata7">
    <rdf:RDF>
      <cc:Work
         rdf:about="">
        <dc:format>image/svg+xml</dc:format>
        <dc:type
           rdf:resource="http://purl.org/dc/dcmitype/StillImage" />
        <dc:title></dc:title>
      </cc:Work>
    </rdf:RDF>
  </metadata>
  <g
     inkscape:label="Layer 1"
     inkscape:groupmode="layer"
     id="layer1"
     transform="translate(0,-1002.3622)">
    <g
       transform="scale(0.98055828,1.0198272)"
       style="font-size:41.57437134px;font-style:normal;font-weight:normal;line-height:125%;letter-spacing:0px;word-spacing:0px;fill:#000000;fill-opacity:1;stroke:none;font-family:Sans"
       id="text2985">
      <g
         transform="scale(1.0198272,0.98055827)"
         style="font-size:40px;line-height:125%;fill:#000000;font-family:Sans"
         id="text3313">
        <path
           d="m 40.850445,1031.4468 c -0.352089,0.5242 -0.687122,0.9503 -1.005095,1.2779 -0.318019,0.3278 -0.698478,0.587 -1.14138,0.7776 -0.442944,0.1907 -0.971044,0.286 -1.584303,0.286 -0.931294,0 -1.706407,-0.283 -2.325349,-0.8491 -0.618973,-0.5659 -1.093126,-1.6056 -1.422464,-3.1191 l -0.971025,-4.5223 c -0.272582,-1.2513 -0.54515,-2.2105 -0.817704,-2.878 -0.272582,-0.6672 -0.712667,-1.2034 -1.320254,-1.6086 -0.607611,-0.4052 -1.473582,-0.6079 -2.597915,-0.6079 l -2.31683,0 0,9.1878 c -8e-6,0.9176 0.07097,1.5849 0.212944,2.002 0.141955,0.4171 0.403166,0.7031 0.783633,0.858 0.380452,0.1549 0.99089,0.2502 1.831319,0.286 l 0,0.7329 c -1.078926,-0.071 -2.555336,-0.1076 -4.429234,-0.1076 -2.010196,0 -3.497963,0.036 -4.463306,0.1076 l 0,-0.7329 c 0.840417,-0.036 1.450856,-0.1311 1.831317,-0.286 0.380456,-0.1549 0.641669,-0.4409 0.783634,-0.858 0.141959,-0.4171 0.212941,-1.0844 0.212945,-2.002 l 0,-18.1609 c -4e-6,-0.9175 -0.07098,-1.5849 -0.212945,-2.0019 -0.141965,-0.4172 -0.403178,-0.7031 -0.783634,-0.858 -0.380461,-0.155 -0.9909,-0.2502 -1.831317,-0.2861 l 0,-0.7328 c 0.965343,0.071 2.45311,0.1075 4.463306,0.1075 1.873898,0 3.350308,-0.036 4.429234,-0.1075 l 0,0.7328 c -0.840429,0.036 -1.450867,0.1311 -1.831319,0.2861 -0.380467,0.1549 -0.641678,0.4408 -0.783633,0.858 -0.141971,0.417 -0.212952,1.0844 -0.212944,2.0019 l 0,8.2761 c 1.192477,-0.024 2.228804,-0.1817 3.108981,-0.4737 0.880158,-0.2919 1.59281,-0.7716 2.137958,-1.4389 0.431552,-0.5363 0.769424,-1.147 1.013612,-1.8323 0.244162,-0.685 0.547963,-1.8053 0.911401,-3.3604 0.36341,-1.555 0.800654,-2.7497 1.311735,-3.5839 0.760903,-1.3227 1.86821,-1.984 3.321925,-1.9842 0.829041,2e-4 1.430963,0.1997 1.805765,0.599 0.37476,0.3991 0.56215,0.9086 0.562172,1.5281 -2.2e-5,0.6317 -0.181733,1.1501 -0.545136,1.5553 -0.363445,0.4052 -0.846117,0.6076 -1.448019,0.6076 -0.647369,0 -1.13572,-0.1906 -1.465055,-0.572 -0.329371,-0.3813 -0.494047,-0.8579 -0.49403,-1.43 -1.7e-5,-0.274 0.0056,-0.4855 0.01704,-0.6345 0.01134,-0.1488 0.01702,-0.2473 0.01704,-0.295 -0.02273,0.011 -0.04544,0.024 -0.06814,0.036 -0.02273,0.012 -0.04544,0.024 -0.06814,0.036 -0.374798,0.1788 -0.698473,0.4469 -0.971024,0.8044 -0.499724,0.6792 -0.93129,1.7875 -1.294699,3.3247 -0.36344,1.5373 -0.70131,2.7676 -1.013614,3.6913 -0.312332,0.9235 -0.84327,1.7367 -1.59282,2.4398 -0.454293,0.4171 -1.050535,0.7507 -1.788729,1.001 1.828466,0.095 3.327589,0.5303 4.497376,1.3048 1.169755,0.7746 1.964745,2.1034 2.384972,3.9862 l 1.005096,4.6116 c 0.181693,0.8105 0.337851,1.4182 0.468475,1.8234 0.130587,0.4051 0.289585,0.7031 0.476995,0.8936 0.187371,0.1908 0.440065,0.2861 0.758081,0.2861 0.397474,0 0.721149,-0.1038 0.971025,-0.3128 0.249833,-0.2086 0.567827,-0.569 0.953988,-1.0815 l 0.528101,0.4112 z"
           style="fill:#800000"
           id="path3324"
           inkscape:connector-curvature="0" />
        <path
           d="m 61.40625,1014.5227 c -0.770853,0.031 -1.330748,0.1146 -1.679688,0.25 -0.348976,0.1354 -0.588559,0.3854 -0.71875,0.75 -0.130225,0.3646 -0.19533,0.9479 -0.195312,1.75 l 0,12.6719 c -1.8e-5,0.8021 0.06509,1.3854 0.195312,1.75 0.130191,0.3646 0.369774,0.6146 0.71875,0.75 0.34894,0.1354 0.908835,0.2187 1.679688,0.25 l 0,0.6406 c -0.885436,-0.062 -2.229185,-0.094 -4.03125,-0.094 -1.760431,0 -3.13543,0.031 -4.125,0.094 l 0,-0.6406 c 0.770821,-0.031 1.330716,-0.1146 1.679687,-0.25 0.348945,-0.1354 0.588528,-0.3854 0.71875,-0.75 0.130194,-0.3646 0.195298,-0.9479 0.195313,-1.75 l 0,-12.6719 c -1.5e-5,-0.8229 -0.05731,-1.4219 -0.171875,-1.7969 -0.114598,-0.375 -0.325535,-0.6276 -0.632813,-0.7578 -0.307305,-0.1302 -0.799492,-0.1953 -1.476562,-0.1953 l -0.40625,0 c -0.666678,0 -1.14324,0.07 -1.429688,0.2109 -0.286468,0.1407 -0.48178,0.3829 -0.585937,0.7266 -0.104176,0.3438 -0.192718,0.9479 -0.265625,1.8125 -0.06251,0.5729 -0.23178,2.5235 -0.507813,5.8516 -0.27605,3.3281 -0.906258,5.9375 -1.890625,7.8281 -0.984381,1.8906 -2.414067,2.8359 -4.289062,2.8359 -0.802085,0 -1.486981,-0.1797 -2.054688,-0.539 -0.567708,-0.3594 -0.851562,-0.9089 -0.851562,-1.6485 0,-0.5521 0.177083,-0.9922 0.53125,-1.3203 0.354166,-0.3281 0.80729,-0.4922 1.359375,-0.4922 0.479164,0 0.869789,0.1276 1.171875,0.3828 0.30208,0.2553 0.453121,0.6172 0.453125,1.086 -4e-6,0.7291 -0.458336,1.3594 -1.375,1.8906 0.197914,0.021 0.453122,0.031 0.765625,0.031 1.520829,0 2.687494,-0.7605 3.5,-2.2813 0.812493,-1.5208 1.364576,-3.3203 1.65625,-5.3984 0.291658,-2.0781 0.557283,-4.8203 0.796875,-8.2266 0.02082,-0.375 0.03124,-0.625 0.03125,-0.75 -9e-6,-0.5312 -0.07813,-0.9349 -0.234375,-1.2109 -0.156259,-0.2761 -0.416675,-0.4688 -0.78125,-0.5782 -0.364591,-0.1093 -0.901049,-0.1796 -1.609375,-0.2109 l 0,-0.6406 c 0.906243,0.062 2.0052,0.094 3.296875,0.094 0.291657,0 0.713531,-0.016 1.265625,-0.047 0.552072,-0.031 0.96353,-0.047 1.234375,-0.047 0.479154,0 1.164049,0.016 2.054687,0.047 0.89061,0.031 1.627589,0.047 2.210938,0.047 1.645815,0 2.911439,-0.031 3.796875,-0.094 l 0,0.6406 z"
           style="font-size:32px;font-variant:normal;font-stretch:normal;font-family:Playfair Display SC;-inkscape-font-specification:Playfair Display SC"
           id="path3326" />
        <path
           d="m 73.671875,1022.929 c 0.104156,-1.8854 0.546864,-3.5469 1.328125,-4.9844 0.781237,-1.4375 1.825507,-2.5495 3.132812,-3.336 1.307275,-0.7864 2.778628,-1.1796 4.414063,-1.1796 1.770812,0 3.322894,0.3932 4.65625,1.1796 1.333308,0.7865 2.367161,1.9297 3.101562,3.4297 0.734347,1.5 1.101534,3.2917 1.101563,5.375 -2.9e-5,2.0313 -0.380237,3.8334 -1.140625,5.4063 -0.760443,1.5729 -1.81513,2.7943 -3.164063,3.664 -1.348981,0.8698 -2.877625,1.3047 -4.585937,1.3047 -1.770851,0 -3.325537,-0.3932 -4.664063,-1.1797 -1.338555,-0.7864 -2.375012,-1.9296 -3.109375,-3.4296 -0.734386,-1.5 -1.101573,-3.2917 -1.101562,-5.375 l 0,-0.2344 -4,0 0,6.375 c -7e-6,0.8021 0.0651,1.3854 0.195312,1.75 0.130202,0.3646 0.369785,0.6146 0.71875,0.75 0.348951,0.1354 0.908846,0.2187 1.679688,0.25 l 0,0.6406 c -0.979175,-0.062 -2.33334,-0.094 -4.0625,-0.094 -1.833337,0 -3.197919,0.031 -4.09375,0.094 l 0,-0.6406 c 0.770831,-0.031 1.330727,-0.1146 1.679687,-0.25 0.348955,-0.1354 0.588539,-0.3854 0.71875,-0.75 0.130205,-0.3646 0.195309,-0.9479 0.195313,-1.75 l 0,-12.6719 c -4e-6,-0.8021 -0.06511,-1.3854 -0.195313,-1.75 -0.130211,-0.3646 -0.369795,-0.6146 -0.71875,-0.75 -0.34896,-0.1354 -0.908856,-0.2187 -1.679687,-0.25 l 0,-0.6406 c 0.885414,0.062 2.249996,0.094 4.09375,0.094 1.72916,0 3.083325,-0.031 4.0625,-0.094 l 0,0.6406 c -0.770842,0.031 -1.330737,0.1146 -1.679688,0.25 -0.348965,0.1354 -0.588548,0.3854 -0.71875,0.75 -0.130215,0.3646 -0.195319,0.9479 -0.195312,1.75 l 0,5.6563 4.03125,0 z m 8.96875,10.2812 c 1.114562,0 2.091124,-0.4088 2.929687,-1.2266 0.838519,-0.8177 1.486955,-1.9583 1.945313,-3.4218 0.458308,-1.4636 0.687475,-3.138 0.6875,-5.0235 -2.5e-5,-1.8958 -0.257838,-3.5651 -0.773438,-5.0078 -0.515649,-1.4427 -1.213565,-2.5573 -2.09375,-3.3437 -0.88023,-0.7865 -1.851583,-1.1797 -2.914062,-1.1797 -1.114602,0 -2.093768,0.4089 -2.9375,1.2265 -0.843766,0.8178 -1.494807,1.9584 -1.953125,3.4219 -0.458348,1.4636 -0.687514,3.138 -0.6875,5.0235 -1.4e-5,1.8958 0.257798,3.5677 0.773437,5.0156 0.51561,1.4479 1.213526,2.5625 2.09375,3.3437 0.880191,0.7813 1.856753,1.1719 2.929688,1.1719 z"
           style="font-size:32px;font-variant:normal;font-stretch:normal;font-family:Playfair Display SC;-inkscape-font-specification:Playfair Display SC"
           id="path3328" />
        <path
           d="m 113.42188,1014.5227 c -0.77086,0.031 -1.33075,0.1146 -1.67969,0.25 -0.34898,0.1354 -0.58856,0.3854 -0.71875,0.75 -0.13023,0.3646 -0.19533,0.9479 -0.19531,1.75 l 0,12.6719 c -2e-5,0.8021 0.0651,1.3854 0.19531,1.75 0.13019,0.3646 0.36977,0.6146 0.71875,0.75 0.34894,0.1354 0.90883,0.2187 1.67969,0.25 l 0,0.6406 c -0.88544,-0.062 -2.25002,-0.094 -4.09375,-0.094 -2.01044,0 -3.57814,0.031 -4.70313,0.094 l 0,-0.6406 c 0.9479,-0.031 1.64061,-0.1146 2.07813,-0.25 0.43748,-0.1354 0.73956,-0.3854 0.90625,-0.75 0.16665,-0.3646 0.24998,-0.9479 0.25,-1.75 l 0,-5.25 c -0.65627,0.3958 -1.55991,0.75 -2.71094,1.0625 -1.15105,0.3125 -2.25262,0.4687 -3.30469,0.4687 -1.75001,0 -3.114589,-0.3698 -4.09375,-1.1093 -0.583337,-0.448 -0.984379,-0.9896 -1.203125,-1.625 -0.218753,-0.6355 -0.328128,-1.5261 -0.328125,-2.6719 l 0,-3.9688 c -3e-6,-0.5937 -0.08073,-1.0572 -0.242188,-1.3906 -0.16146,-0.3333 -0.416669,-0.5677 -0.765625,-0.7031 -0.34896,-0.1354 -0.825522,-0.2031 -1.429687,-0.2031 l 0,-0.6719 c 1.958331,0.083 3.270829,0.125 3.9375,0.125 0.593745,0 1.786452,-0.042 3.57813,-0.125 l 0,0.6719 c -0.53126,0 -0.94532,0.068 -1.24219,0.2031 -0.296884,0.1354 -0.515634,0.3698 -0.656253,0.7031 -0.140631,0.3334 -0.210943,0.7969 -0.210937,1.3906 l 0,4.6719 c -6e-6,0.7813 0.08593,1.4323 0.257812,1.9531 0.171869,0.5209 0.526035,0.9401 1.062498,1.2578 0.53645,0.3178 1.32551,0.4766 2.36719,0.4766 2.10415,0 3.76561,-0.3542 4.98438,-1.0625 l 0,-6.875 c -2e-5,-0.8021 -0.0651,-1.3854 -0.19532,-1.75 -0.13022,-0.3646 -0.3698,-0.6146 -0.71875,-0.75 -0.34897,-0.1354 -0.90886,-0.2187 -1.67968,-0.25 l 0,-0.6406 c 0.8854,0.062 2.24998,0.094 4.09375,0.094 1.71873,0 3.07289,-0.031 4.0625,-0.094 l 0,0.6406 z"
           style="font-size:32px;font-variant:normal;font-stretch:normal;font-family:Playfair Display SC;-inkscape-font-specification:Playfair Display SC"
           id="path3330" />
        <path
           d="m 131.98437,1027.2571 c -0.0625,0.5729 -0.0938,1.3385 -0.0937,2.2969 -1e-5,1.125 0.0729,2.3854 0.21875,3.7812 -1.38543,-0.062 -3.72397,-0.094 -7.01562,-0.094 -3.93751,0 -6.92188,0.031 -8.95312,0.094 l 0,-0.6406 c 0.77083,-0.031 1.33072,-0.1146 1.67968,-0.25 0.34896,-0.1354 0.58854,-0.3854 0.71875,-0.75 0.13021,-0.3646 0.19531,-0.9479 0.19532,-1.75 l 0,-12.6719 c -1e-5,-0.8021 -0.0651,-1.3854 -0.19532,-1.75 -0.13021,-0.3646 -0.36979,-0.6146 -0.71875,-0.75 -0.34896,-0.1354 -0.90885,-0.2187 -1.67968,-0.25 l 0,-0.6406 c 2.03124,0.062 5.01561,0.094 8.95312,0.094 2.98957,0 5.11457,-0.031 6.375,-0.094 -0.14585,1.2812 -0.21877,2.4323 -0.21875,3.4531 -2e-5,0.8334 0.0312,1.4948 0.0937,1.9844 l -0.73438,0 c -0.11459,-1.1875 -0.31511,-2.1198 -0.60156,-2.7969 -0.28647,-0.6771 -0.69793,-1.164 -1.23437,-1.4609 -0.53647,-0.2969 -1.24741,-0.4453 -2.13281,-0.4453 l -2.34375,0 c -0.77085,0 -1.33074,0.06 -1.67969,0.1796 -0.34897,0.1199 -0.58855,0.362 -0.71875,0.7266 -0.13022,0.3646 -0.19532,0.9479 -0.19531,1.75 l 0,5.9531 2.65625,0 c 0.67707,0 1.20051,-0.1744 1.57031,-0.5234 0.36978,-0.349 0.61717,-0.7344 0.74219,-1.1563 0.12498,-0.4218 0.23957,-0.9505 0.34375,-1.5859 l 0.73437,0 c -0.0729,0.8334 -0.10939,1.625 -0.10937,2.375 l 0.0156,1.2031 c -1e-5,0.8542 0.0677,2.0521 0.20313,3.5938 l -0.75,0 c -0.0833,-0.6563 -0.20054,-1.2136 -0.35157,-1.6719 -0.15105,-0.4583 -0.41668,-0.8385 -0.79687,-1.1406 -0.38022,-0.3021 -0.91408,-0.4531 -1.60156,-0.4531 l -2.65625,0 0,6.0781 c -1e-5,0.8021 0.0651,1.3828 0.19531,1.7422 0.1302,0.3593 0.36978,0.6015 0.71875,0.7265 0.34895,0.125 0.90884,0.1875 1.67969,0.1875 l 2.34375,0 c 1.05207,0 1.89061,-0.1692 2.51562,-0.5078 0.62499,-0.3385 1.09894,-0.8906 1.42187,-1.6562 0.32291,-0.7657 0.54686,-1.8255 0.67188,-3.1797 l 0.73437,0 z"
           style="font-size:32px;font-variant:normal;font-stretch:normal;font-family:Playfair Display SC;-inkscape-font-specification:Playfair Display SC"
           id="path3332" />
        <path
           d="m 145.5,1022.9602 c 2.22915,0.2813 3.8229,0.888 4.78125,1.8203 0.95832,0.9323 1.43748,2.0339 1.4375,3.3047 -2e-5,1.0313 -0.29429,1.9427 -0.88281,2.7344 -0.58856,0.7916 -1.43752,1.4088 -2.54688,1.8515 -1.10939,0.4428 -2.41928,0.6641 -3.92969,0.6641 -0.40626,0 -1.11719,-0.016 -2.13281,-0.047 -1.01563,-0.031 -2.03386,-0.047 -3.05469,-0.047 -1.75,0 -3.07291,0.031 -3.96875,0.094 l 0,-0.6406 c 0.77084,-0.031 1.33073,-0.1146 1.67969,-0.25 0.34896,-0.1354 0.58854,-0.3854 0.71875,-0.75 0.13021,-0.3646 0.19531,-0.9479 0.19531,-1.75 l 0,-12.6719 c 0,-0.8125 -0.0651,-1.401 -0.19531,-1.7656 -0.13021,-0.3646 -0.36719,-0.612 -0.71094,-0.7422 -0.34375,-0.1302 -0.90625,-0.2109 -1.6875,-0.2422 l 0,-0.6406 c 0.88542,0.062 2.1875,0.094 3.90625,0.094 0.78125,0 1.64323,-0.01 2.58594,-0.031 0.9427,-0.021 1.58593,-0.031 1.92969,-0.031 1.38541,0 2.55988,0.1849 3.52344,0.5547 0.96352,0.3698 1.68748,0.8828 2.17187,1.5391 0.48436,0.6562 0.72655,1.4167 0.72656,2.2812 -1e-5,1.0313 -0.35939,1.9532 -1.07812,2.7657 -0.71876,0.8125 -1.87501,1.427 -3.46875,1.8437 l 0,0.062 z m -2.90625,-0.062 c 1.63541,0 2.77603,-0.3724 3.42187,-1.1172 0.64583,-0.7448 0.96874,-1.789 0.96875,-3.1328 -1e-5,-1.375 -0.33074,-2.4062 -0.99218,-3.0937 -0.66147,-0.6875 -1.72137,-1.0313 -3.17969,-1.0313 -0.57293,0 -1.00261,0.076 -1.28906,0.2266 -0.28647,0.151 -0.48438,0.4193 -0.59375,0.8047 -0.10938,0.3854 -0.16407,0.9583 -0.16407,1.7187 l 0,5.625 1.82813,0 z m -1.82813,7.0469 c 0,0.7708 0.0547,1.3385 0.16407,1.7031 0.10937,0.3646 0.30728,0.6146 0.59375,0.75 0.28645,0.1354 0.72655,0.2031 1.32031,0.2031 1.94791,0 3.3802,-0.3906 4.29687,-1.1718 0.91666,-0.7813 1.37499,-1.9375 1.375,-3.4688 -1e-5,-1.4792 -0.42709,-2.6015 -1.28125,-3.3672 -0.85417,-0.7656 -2.21876,-1.1484 -4.09375,-1.1484 l -2.375,0 0,6.5 z"
           style="font-size:32px;font-variant:normal;font-stretch:normal;font-family:Playfair Display SC;-inkscape-font-specification:Playfair Display SC"
           id="path3334" />
        <path
           d="m 164.71875,1013.429 c 1.96874,0 3.69269,0.3932 5.17187,1.1796 1.47915,0.7865 2.62499,1.9297 3.4375,3.4297 0.81248,1.5 1.21873,3.2917 1.21875,5.375 -2e-5,2.0417 -0.41929,3.8464 -1.25781,5.4141 -0.83856,1.5677 -2.00522,2.7865 -3.5,3.6562 -1.4948,0.8698 -3.19532,1.3047 -5.10156,1.3047 -1.96876,0 -3.69011,-0.3932 -5.16406,-1.1797 -1.47397,-0.7864 -2.61719,-1.9296 -3.42969,-3.4296 -0.8125,-1.5 -1.21875,-3.2917 -1.21875,-5.375 0,-2.0417 0.41927,-3.849 1.25781,-5.4219 0.83854,-1.5729 2.0026,-2.7917 3.49219,-3.6563 1.48958,-0.8645 3.18749,-1.2968 5.09375,-1.2968 z m -0.125,0.5781 c -1.30209,0 -2.44793,0.4089 -3.4375,1.2265 -0.98959,0.8178 -1.75261,1.9584 -2.28906,3.4219 -0.53647,1.4636 -0.80469,3.138 -0.80469,5.0235 0,1.8958 0.29947,3.5677 0.89844,5.0156 0.59895,1.4479 1.41145,2.5625 2.4375,3.3437 1.02603,0.7813 2.16405,1.1719 3.41406,1.1719 1.30207,0 2.4479,-0.4088 3.4375,-1.2266 0.98957,-0.8177 1.75259,-1.9583 2.28906,-3.4218 0.53644,-1.4636 0.80467,-3.138 0.80469,-5.0235 -2e-5,-1.8958 -0.2995,-3.5677 -0.89844,-5.0156 -0.59897,-1.4479 -1.41147,-2.5625 -2.4375,-3.3437 -1.02605,-0.7813 -2.16407,-1.1719 -3.41406,-1.1719 z"
           style="font-size:32px;font-variant:normal;font-stretch:normal;font-family:Playfair Display SC;-inkscape-font-specification:Playfair Display SC"
           id="path3336" />
        <path
           d="m 199.10937,1014.5227 c -0.77085,0.031 -1.33075,0.1146 -1.67968,0.25 -0.34898,0.1354 -0.58856,0.3854 -0.71875,0.75 -0.13023,0.3646 -0.19534,0.9479 -0.19532,1.75 l 0,12.6719 c -2e-5,0.8021 0.0651,1.3854 0.19532,1.75 0.13019,0.3646 0.36977,0.6146 0.71875,0.75 0.34893,0.1354 0.90883,0.2187 1.67968,0.25 l 0,0.6406 c -0.88543,-0.062 -2.25002,-0.094 -4.09375,-0.094 -1.70835,0 -3.06251,0.031 -4.0625,0.094 l 0,-0.6406 c 0.77082,-0.031 1.33072,-0.1146 1.67969,-0.25 0.34894,-0.1354 0.58853,-0.3854 0.71875,-0.75 0.13019,-0.3646 0.1953,-0.9479 0.19531,-1.75 l 0,-11.9219 -10.39062,12.5469 c 0.0312,0.5937 0.12239,1.0338 0.27344,1.3203 0.15103,0.2865 0.39843,0.4844 0.74218,0.5937 0.34375,0.1094 0.86458,0.1797 1.5625,0.211 l 0,0.6406 c -0.98959,-0.062 -2.34375,-0.094 -4.0625,-0.094 -1.84375,0 -3.20833,0.031 -4.09375,0.094 l 0,-0.6406 c 0.77084,-0.031 1.33073,-0.1146 1.67969,-0.25 0.34896,-0.1354 0.58854,-0.3854 0.71875,-0.75 0.13021,-0.3646 0.19531,-0.9479 0.19531,-1.75 l 0,-12.6719 c 0,-0.8021 -0.0651,-1.3854 -0.19531,-1.75 -0.13021,-0.3646 -0.36979,-0.6146 -0.71875,-0.75 -0.34896,-0.1354 -0.90885,-0.2187 -1.67969,-0.25 l 0,-0.6406 c 0.88542,0.062 2.25,0.094 4.09375,0.094 1.71875,0 3.07291,-0.031 4.0625,-0.094 l 0,0.6406 c -0.77084,0.031 -1.33073,0.1146 -1.67968,0.25 -0.34897,0.1354 -0.58855,0.3854 -0.71875,0.75 -0.13022,0.3646 -0.19532,0.9479 -0.19532,1.75 l 0,12.1875 10.40625,-12.5781 c -0.0209,-0.6771 -0.10418,-1.1719 -0.25,-1.4844 -0.14585,-0.3125 -0.39064,-0.5286 -0.73437,-0.6484 -0.34377,-0.1198 -0.88022,-0.1953 -1.60938,-0.2266 l 0,-0.6406 c 0.99999,0.062 2.35415,0.094 4.0625,0.094 1.83332,0 3.1979,-0.031 4.09375,-0.094 l 0,0.6406 z m -5.92187,-8.7656 c 0.49998,0 0.90884,0.1589 1.22656,0.4765 0.31769,0.3178 0.47655,0.7423 0.47656,1.2735 -1e-5,0.4479 -0.12241,0.8438 -0.36718,1.1875 -0.24481,0.3438 -0.63804,0.6771 -1.17969,1 -1.32293,0.8021 -2.98439,1.2031 -4.98438,1.2031 -1.98959,0 -3.65625,-0.401 -5,-1.2031 -0.53125,-0.3229 -0.91927,-0.6562 -1.16406,-1 -0.24479,-0.3437 -0.36719,-0.7396 -0.36719,-1.1875 0,-0.5312 0.15625,-0.9557 0.46875,-1.2735 0.3125,-0.3176 0.72396,-0.4765 1.23438,-0.4765 0.51041,0 0.92968,0.1537 1.25781,0.4609 0.32812,0.3073 0.49218,0.7266 0.49219,1.2578 -1e-5,0.4376 -0.1198,0.7969 -0.35938,1.0782 -0.23959,0.2812 -0.56771,0.4687 -0.98437,0.5625 0.44791,0.4166 1.08593,0.7109 1.91406,0.8828 0.82812,0.1719 1.66405,0.2578 2.50781,0.2578 0.84374,0 1.67968,-0.086 2.50782,-0.2578 0.82811,-0.1719 1.46092,-0.4662 1.89843,-0.8828 -0.41668,-0.094 -0.7448,-0.2813 -0.98437,-0.5625 -0.2396,-0.2813 -0.35939,-0.6406 -0.35938,-1.0782 -1e-5,-0.5208 0.16926,-0.9374 0.50782,-1.25 0.33852,-0.3124 0.75779,-0.4687 1.25781,-0.4687 z"
           style="font-size:32px;font-variant:normal;font-stretch:normal;font-family:Playfair Display SC;-inkscape-font-specification:Playfair Display SC"
           id="path3338" />
      </g>
      <g
         style="font-size:41.57437134px;font-style:normal;font-weight:normal;line-height:125%;letter-spacing:0px;word-spacing:0px;fill:#000000;fill-opacity:1;stroke:none;font-family:Sans"
         id="g3340"
         transform="matrix(1,0,0,0.87648451,-83.840948,123.30509)">
        <path
           transform="matrix(1.0198272,0,0,0.98055827,0.16048143,982.87455)"
           d="m 166.42857,21.071428 c 0,1.50399 -0.83946,2.723215 -1.875,2.723215 -1.03553,0 -1.875,-1.219225 -1.875,-2.723215 0,-1.503989 0.83947,-2.723214 1.875,-2.723214 1.03554,0 1.875,1.219225 1.875,2.723214 z"
           sodipodi:ry="2.7232144"
           sodipodi:rx="1.875"
           sodipodi:cy="21.071428"
           sodipodi:cx="164.55357"
           id="path3319"
           style="fill:#000000"
           sodipodi:type="arc" />
        <rect
           ry="0.65662384"
           y="1004.0835"
           x="167.14581"
           height="5.9971642"
           width="1.661772"
           id="rect3321"
           style="fill:#000000" />
      </g>
    </g>
    <text
       xml:space="preserve"
       style="font-size:40px;font-style:normal;font-weight:normal;line-height:125%;letter-spacing:0px;word-spacing:0px;fill:#000000;fill-opacity:1;stroke:none;font-family:Sans"
       x="19.069824"
       y="1047.1837"
       id="text2989"
       sodipodi:linespacing="125%"><tspan
         sodipodi:role="line"
         id="tspan2991"
         x="19.069824"
         y="1047.1837"
         style="font-size:15px;font-style:normal;font-variant:normal;font-weight:normal;font-stretch:normal;font-family:Playfair Display SC;-inkscape-font-specification:Playfair Display SC"><tspan
   style="fill:#800000"
   id="tspan2995">ф</tspan>актор <tspan
   style="fill:#800000"
   id="tspan2997">т</tspan>воего <tspan
   style="fill:#800000"
   id="tspan2999">у</tspan>спеха</tspan></text>
  </g>
</svg>
